<?xml version="1.0" encoding="UTF-8"?><svg xmlns="http://www.w3.org/2000/svg" viewBox="0 0 429.67 209"><defs><style>.d{fill:aqua;}.e{fill:#fff;}.f{fill:#3f8efc;}</style></defs><g id="a"/><g id="b"><g id="c"><rect class="f" x="4.48" y="4.04" width="200" height="200" rx="40.08" ry="40.08" transform="translate(-7.02 7.56) rotate(-4.01)"/><g><path class="d" d="M232.48,97.12v36.2h-18.1v-36.2h-6v-15.1h6v-15.4h18.1v15.4h10.3v15.1h-10.3Z"/><path class="d" d="M244.58,82.02h18.1v8.4c1.93-3.07,4.3-5.42,7.1-7.05,2.8-1.63,6.07-2.45,9.8-2.45h1.55c.57,0,1.22,.07,1.95,.2v17.3c-2.4-1.2-5-1.8-7.8-1.8-4.2,0-7.35,1.25-9.45,3.75-2.1,2.5-3.15,6.15-3.15,10.95v22h-18.1v-51.3Z"/><path class="d" d="M326.38,82.02h18.2v51.3h-18.2v-5.7c-3.87,4.87-9.1,7.3-15.7,7.3-3.73,0-7.17-.68-10.3-2.05-3.13-1.37-5.87-3.28-8.2-5.75-2.33-2.47-4.15-5.37-5.45-8.7-1.3-3.33-1.95-6.96-1.95-10.9,0-3.67,.63-7.15,1.9-10.45,1.27-3.3,3.03-6.18,5.3-8.65,2.27-2.47,4.96-4.42,8.1-5.85,3.13-1.43,6.6-2.15,10.4-2.15,6.4,0,11.7,2.23,15.9,6.7v-5.1Zm-22.8,25.5c0,1.67,.3,3.22,.9,4.65,.6,1.43,1.42,2.68,2.45,3.75,1.03,1.07,2.27,1.9,3.7,2.5,1.43,.6,2.98,.9,4.65,.9s3.12-.3,4.55-.9c1.43-.6,2.67-1.43,3.7-2.5,1.03-1.07,1.87-2.3,2.5-3.7,.63-1.4,.95-2.9,.95-4.5s-.32-3.12-.95-4.55c-.63-1.43-1.47-2.68-2.5-3.75-1.03-1.07-2.27-1.9-3.7-2.5-1.43-.6-2.95-.9-4.55-.9s-3.22,.3-4.65,.9c-1.43,.6-2.67,1.43-3.7,2.5-1.03,1.07-1.85,2.29-2.45,3.65-.6,1.37-.9,2.85-.9,4.45Z"/><path class="d" d="M385.88,95.22c-3.33-1.73-6.6-2.6-9.8-2.6-1.67,0-3.02,.33-4.05,1-1.03,.67-1.55,1.57-1.55,2.7,0,.6,.08,1.08,.25,1.45,.17,.37,.53,.72,1.1,1.05,.57,.33,1.4,.63,2.5,.9,1.1,.27,2.55,.6,4.35,1,5,1,8.73,2.78,11.2,5.35,2.47,2.57,3.7,5.85,3.7,9.85,0,3-.6,5.7-1.8,8.1-1.2,2.4-2.87,4.42-5,6.05-2.13,1.63-4.7,2.9-7.7,3.8-3,.9-6.3,1.35-9.9,1.35-6.93,0-13.77-1.97-20.5-5.9l6.6-12.8c5.07,3.47,9.87,5.2,14.4,5.2,1.67,0,3.03-.37,4.1-1.1,1.07-.73,1.6-1.67,1.6-2.8,0-.67-.08-1.22-.25-1.65-.17-.43-.52-.83-1.05-1.2-.54-.37-1.32-.7-2.35-1-1.03-.3-2.38-.62-4.05-.95-5.6-1.13-9.52-2.82-11.75-5.05-2.23-2.23-3.35-5.32-3.35-9.25,0-2.87,.53-5.45,1.6-7.75,1.07-2.3,2.6-4.25,4.6-5.85,2-1.6,4.42-2.83,7.25-3.7,2.83-.87,5.98-1.3,9.45-1.3,5.67,0,11.17,1.1,16.5,3.3l-6.1,11.8Z"/><path class="d" d="M419.37,97.12v36.2h-18.1v-36.2h-6v-15.1h6v-15.4h18.1v15.4h10.3v15.1h-10.3Z"/></g><rect class="d" x="4.48" y="4.52" width="200" height="200" rx="40.08" ry="40.08" transform="translate(8.44 -7.8) rotate(4.46)"/><g><path class="e" d="M76.98,98.62c-3.13-2.13-6.3-3.2-9.5-3.2-1.73,0-3.35,.3-4.85,.9s-2.82,1.45-3.95,2.55c-1.13,1.1-2.02,2.4-2.65,3.9-.63,1.5-.95,3.18-.95,5.05s.32,3.45,.95,4.95c.63,1.5,1.5,2.8,2.6,3.9s2.42,1.95,3.95,2.55c1.53,.6,3.17,.9,4.9,.9,3.4,0,6.57-1.17,9.5-3.5v15.4c-4.47,1.93-8.7,2.9-12.7,2.9-3.73,0-7.28-.63-10.65-1.9-3.37-1.27-6.33-3.08-8.9-5.45-2.57-2.37-4.62-5.2-6.15-8.5-1.53-3.3-2.3-6.98-2.3-11.05s.73-7.78,2.2-11.15c1.46-3.37,3.46-6.27,6-8.7,2.53-2.43,5.55-4.33,9.05-5.7,3.5-1.37,7.25-2.05,11.25-2.05,4.4,0,8.47,.93,12.2,2.8v15.4Z"/><path class="e" d="M80.28,107.22c0-3.8,.77-7.35,2.3-10.65,1.53-3.3,3.67-6.17,6.4-8.6,2.73-2.43,5.98-4.35,9.75-5.75,3.77-1.4,7.88-2.1,12.35-2.1s8.48,.68,12.25,2.05c3.77,1.37,7.03,3.27,9.8,5.7,2.77,2.43,4.92,5.33,6.45,8.7,1.53,3.37,2.3,7.08,2.3,11.15s-.78,7.78-2.35,11.15c-1.57,3.37-3.72,6.27-6.45,8.7-2.73,2.43-6.02,4.32-9.85,5.65-3.83,1.33-7.98,2-12.45,2s-8.47-.67-12.2-2c-3.73-1.33-6.95-3.23-9.65-5.7-2.7-2.47-4.82-5.42-6.35-8.85-1.53-3.43-2.3-7.25-2.3-11.45Zm19.1,.2c0,1.73,.32,3.32,.95,4.75,.63,1.43,1.47,2.68,2.5,3.75,1.03,1.07,2.27,1.9,3.7,2.5,1.43,.6,2.95,.9,4.55,.9s3.12-.3,4.55-.9c1.43-.6,2.67-1.43,3.7-2.5,1.03-1.07,1.87-2.32,2.5-3.75,.63-1.43,.95-2.98,.95-4.65s-.32-3.12-.95-4.55c-.63-1.43-1.47-2.68-2.5-3.75-1.03-1.07-2.27-1.9-3.7-2.5-1.43-.6-2.95-.9-4.55-.9s-3.12,.3-4.55,.9c-1.43,.6-2.67,1.43-3.7,2.5-1.03,1.07-1.87,2.3-2.5,3.7-.63,1.4-.95,2.9-.95,4.5Z"/><path class="e" d="M147.28,82.02h18.1v6.5c2.47-3,4.97-5.02,7.5-6.05,2.53-1.03,5.5-1.55,8.9-1.55,3.6,0,6.68,.58,9.25,1.75,2.57,1.17,4.75,2.82,6.55,4.95,1.47,1.73,2.47,3.67,3,5.8,.53,2.13,.8,4.57,.8,7.3v32.6h-18.1v-25.9c0-2.53-.18-4.58-.55-6.15-.37-1.57-1.02-2.82-1.95-3.75-.8-.8-1.7-1.37-2.7-1.7-1-.33-2.07-.5-3.2-.5-3.07,0-5.42,.92-7.05,2.75-1.63,1.83-2.45,4.45-2.45,7.85v27.4h-18.1v-51.3Z"/></g></g></g></svg>